{"asset":{"version":"2.0","generator":"pv2gltf","copyright":""},"samplers":[{"magFilter":9729,"minFilter":9986,"wrapS":10497,"wrapT":10497}],"materials":[{"name":"__pv_default_material_0__","pbrMetallicRoughness":{"baseColorFactor":[0.6800000071525574,0.6800000071525574,0.6800000071525574,1.0],"metallicFactor":0.5,"roughnessFactor":0.5},"doubleSided":true}],"buffers":[{"uri":"baumARfbx.bin","byteLength":3680}],"bufferViews":[{"buffer":0,"byteOffset":0,"byteLength":3216,"byteStride":12,"target":34962},{"buffer":0,"byteOffset":3216,"byteLength":464,"target":34963}],"accessors":[{"bufferView":0,"byteOffset":0,"componentType":5126,"count":134,"type":"VEC3","min":[-0.009999999776482582,-0.03867598995566368,-0.04433867335319519],"max":[0.026782473549246789,0.009999999776482582,0.08888238668441773]},{"bufferView":0,"byteOffset":1608,"componentType":5126,"count":134,"type":"VEC3"},{"bufferView":1,"byteOffset":0,"componentType":5123,"count":231,"type":"SCALAR"}],"meshes":[{"name":"Cube.003","primitives":[{"attributes":{"NORMAL":1,"POSITION":0},"indices":2,"mode":4,"material":0}]}],"nodes":[{"name":"Cube.003","mesh":0,"matrix":[1.7999999523162842,0.0,0.0,0.0,0.0,0.6470476687280484,-2.4148145507250859,0.0,0.0,1.7386664304631295,0.46587430914274,0.0,0.0,0.0,0.0,1.0],"extras":{"id":"36"}},{"name":"baumARfbx","children":[0]}],"scenes":[{"nodes":[1]}],"scene":0}